<svg width="24" height="24" viewBox="0 0 24 24" fill="none" xmlns="http://www.w3.org/2000/svg">
<path fill-rule="evenodd" clip-rule="evenodd" d="M8.97008 7.07695C8.97008 6.52466 9.41779 6.07695 9.97008 6.07695L17.13 6.07695C17.3952 6.07695 17.6496 6.1823 17.8371 6.36984C18.0247 6.55738 18.13 6.81173 18.13 7.07695L18.13 14.2369C18.13 14.7892 17.6823 15.2369 17.13 15.2369C16.5777 15.2369 16.13 14.7892 16.13 14.2369L16.13 9.49116L7.81085 17.8103C7.42032 18.2009 6.78716 18.2009 6.39664 17.8103C6.00611 17.4198 6.00611 16.7866 6.39664 16.3961L14.7158 8.07695L9.97008 8.07695C9.41779 8.07695 8.97008 7.62923 8.97008 7.07695Z" fill="white"/>
</svg>
