<svg width="20" height="20" viewBox="0 0 20 20" fill="none" xmlns="http://www.w3.org/2000/svg">
<path fill-rule="evenodd" clip-rule="evenodd" d="M9.9999 2.49999C8.15895 2.49999 6.66657 3.99238 6.66657 5.83333C6.66657 7.67428 8.15895 9.16666 9.9999 9.16666C11.8409 9.16666 13.3332 7.67428 13.3332 5.83333C13.3332 3.99238 11.8409 2.49999 9.9999 2.49999ZM4.9999 5.83333C4.9999 3.0719 7.23848 0.833328 9.9999 0.833328C12.7613 0.833328 14.9999 3.0719 14.9999 5.83333C14.9999 8.59475 12.7613 10.8333 9.9999 10.8333C7.23848 10.8333 4.9999 8.59475 4.9999 5.83333ZM2.00824 18.3333C2.00824 14.4963 5.75782 11.6667 9.9999 11.6667C14.242 11.6667 17.9916 14.4963 17.9916 18.3333C17.9916 18.7936 17.6185 19.1667 17.1582 19.1667C16.698 19.1667 16.3249 18.7936 16.3249 18.3333C16.3249 15.7204 13.6578 13.3333 9.9999 13.3333C6.34199 13.3333 3.67491 15.7204 3.67491 18.3333C3.67491 18.7936 3.30181 19.1667 2.84157 19.1667C2.38134 19.1667 2.00824 18.7936 2.00824 18.3333Z" fill="black"/>
</svg>
