<svg width="20" height="16" viewBox="0 0 20 16" fill="none" xmlns="http://www.w3.org/2000/svg">
<path fill-rule="evenodd" clip-rule="evenodd" d="M3.37952 2.51692C2.86707 2.99277 2.49998 3.78384 2.49998 5.08334V10.9167C2.49998 12.2162 2.86707 13.0073 3.37952 13.4831C3.90315 13.9693 4.71106 14.25 5.83331 14.25H14.1666C15.2889 14.25 16.0968 13.9693 16.6204 13.4831C17.1329 13.0073 17.5 12.2162 17.5 10.9167V5.08334C17.5 3.78384 17.1329 2.99277 16.6204 2.51692C16.0968 2.03069 15.2889 1.75001 14.1666 1.75001H5.83331C4.71106 1.75001 3.90315 2.03069 3.37952 2.51692ZM2.24544 1.2956C3.18014 0.427659 4.45557 0.0833435 5.83331 0.0833435H14.1666C15.5444 0.0833435 16.8198 0.427659 17.7545 1.2956C18.7004 2.17392 19.1666 3.46618 19.1666 5.08334V10.9167C19.1666 12.5338 18.7004 13.8261 17.7545 14.7044C16.8198 15.5724 15.5444 15.9167 14.1666 15.9167H5.83331C4.45557 15.9167 3.18014 15.5724 2.24544 14.7044C1.29955 13.8261 0.833313 12.5338 0.833313 10.9167V5.08334C0.833313 3.46618 1.29955 2.17392 2.24544 1.2956ZM14.8178 4.97994C15.105 5.33955 15.0463 5.86391 14.6867 6.15114L12.0784 8.23447L12.0773 8.2353C10.9152 9.16047 9.07638 9.16047 7.91428 8.2353L7.91222 8.23366L7.91222 8.23366L5.31222 6.15033C4.95306 5.86254 4.89521 5.33808 5.183 4.97892C5.47079 4.61976 5.99524 4.5619 6.3544 4.84969L8.95234 6.93139C8.95264 6.93162 8.95294 6.93186 8.95324 6.9321C9.50783 7.37278 10.4845 7.37265 11.0389 6.9317C11.039 6.9316 11.0391 6.93149 11.0393 6.93139L13.6466 4.84888C14.0062 4.56165 14.5305 4.62033 14.8178 4.97994Z" fill="black"/>
</svg>
